<?xml version="1.0" encoding="UTF-8" standalone="no"?>
<svg width="78px" height="78px" viewBox="0 0 78 78" version="1.1" xmlns="http://www.w3.org/2000/svg" xmlns:xlink="http://www.w3.org/1999/xlink">
    <!-- Generator: Sketch 3.6.1 (26313) - http://www.bohemiancoding.com/sketch -->
    <title>icon</title>
    <desc>Created with Sketch.</desc>
    <defs>
        <radialGradient cx="50%" cy="0%" fx="50%" fy="0%" r="134.136032%" id="radialGradient-1">
            <stop stop-color="#056585" offset="0%"></stop>
            <stop stop-color="#060629" offset="100%"></stop>
        </radialGradient>
    </defs>
    <g id="Page-1" stroke="none" stroke-width="1" fill="none" fill-rule="evenodd">
        <g id="home" transform="translate(-770.000000, -910.000000)">
            <g id="Features" transform="translate(0.000000, 677.000000)">
                <g id="2" transform="translate(770.000000, 229.000000)">
                    <g id="icon" transform="translate(0.000000, 4.000000)">
                        <rect id="bg" fill="#FFFFFF" x="0" y="0" width="78" height="78" rx="69.9999988"></rect>
                        <g id="10-Day-Weather-API-" transform="translate(20.892857, 23.678571)">
                            <path d="M7.66071429,23.6785714 C3.48214286,23.6785714 0,19.9369511 0,15.3214286 C0,10.705906 3.74162031,6.96428571 8.35714286,6.96428571 C10.0658133,6.96428571 11.6547166,7.47706984 12.9783575,8.35714286 C14.5430576,3.51788964 19.0482052,0 24.375,0 C30.9136569,0 36.2142857,5.30062877 36.2142857,11.8392857 C36.2142857,19.0743712 30.9910714,23.6785714 27.1607143,23.6785714" id="Combined-Shape" stroke="#179EFF" stroke-width="1.39999998" stroke-linecap="round" stroke-linejoin="round"></path>
                            <g id="Group" transform="translate(13.928571, 17.410714)" fill="#179EFF">
                                <rect id="Rectangle-18" x="0" y="0" width="1.39285714" height="12.5357143" rx="1.39999998"></rect>
                                <rect id="Rectangle-18-Copy" x="3.48214286" y="0" width="1.39285714" height="12.5357143"></rect>
                                <rect id="Rectangle-18-Copy-2" x="6.26785714" y="0" width="1.39285714" height="12.5357143"></rect>
                                <rect id="Rectangle-21" x="4.875" y="0" width="1.39285714" height="1.39285714"></rect>
                                <rect id="Rectangle-21-Copy" x="4.875" y="11.1428571" width="1.39285714" height="1.39285714"></rect>
                            </g>
                        </g>
                    </g>
                </g>
            </g>
        </g>
    </g>
</svg>