<?xml version="1.0" encoding="UTF-8" standalone="no"?>
<svg width="78px" height="78px" viewBox="0 0 78 78" version="1.1" xmlns="http://www.w3.org/2000/svg" xmlns:xlink="http://www.w3.org/1999/xlink">
    <!-- Generator: Sketch 3.6.1 (26313) - http://www.bohemiancoding.com/sketch -->
    <title>icon</title>
    <desc>Created with Sketch.</desc>
    <defs>
        <radialGradient cx="50%" cy="0%" fx="50%" fy="0%" r="134.136032%" id="radialGradient-1">
            <stop stop-color="#056585" offset="0%"></stop>
            <stop stop-color="#060629" offset="100%"></stop>
        </radialGradient>
    </defs>
    <g id="Page-1" stroke="none" stroke-width="1" fill="none" fill-rule="evenodd">
        <g id="home" transform="translate(-194.000000, -1062.000000)">
            <g id="Features" transform="translate(0.000000, 677.000000)">
                <g id="3" transform="translate(194.000000, 385.000000)">
                    <g id="icon">
                        <rect id="bg" fill="#FFFFFF" x="0" y="0" width="78" height="78" rx="69.9999988"></rect>
                        <g id="Extras-" transform="translate(22.982143, 23.678571)" stroke-width="1.39999998" stroke="#179EFF">
                            <g id="Group" stroke-linecap="round" stroke-linejoin="round">
                                <path d="M30.6268057,14.6137947 C30.2570614,6.4804893 23.5460447,0 15.3214286,0 C6.85963723,0 0,6.85963723 0,15.3214286 C0,23.5460447 6.4804893,30.2570614 14.6137947,30.6268057 M30.6268057,14.6137947 L30.6268057,14.6137947 L30.6268057,14.6137947 M30.6268057,14.6137947 C30.6374681,14.8483368 30.6428571,15.0842533 30.6428571,15.3214286 M15.3214286,30.6428571 C15.0842533,30.6428571 14.8483368,30.6374681 14.6137947,30.6268057 M30.6268057,14.6137947 L30.6268057,14.6137947" id="Combined-Shape"></path>
                                <g id="Group-2" transform="translate(9.750000, 1.392857)">
                                    <path d="M10.4464286,0.348214286 L10.4464286,13.9285714" id="Line"></path>
                                    <path d="M0.696428571,0.348214286 L0.696428571,27.5089286" id="Line-Copy-4"></path>
                                </g>
                                <g id="Group-2-Copy" transform="translate(15.321429, 14.973214) rotate(-90.000000) translate(-15.321429, -14.973214) translate(9.750000, 0.696429)">
                                    <path d="M10.4464286,0.348214286 L10.4464286,28.2053571" id="Line"></path>
                                    <path d="M0.696428571,0.348214286 L0.696428571,14.2767857" id="Line-Copy-4"></path>
                                </g>
                            </g>
                            <g id="Group-3" transform="translate(18.107143, 18.107143)">
                                <ellipse id="Oval-5" cx="8.35714286" cy="8.35714286" rx="8.35714286" ry="8.35714286"></ellipse>
                                <path d="M8.00892857,5.22321429 L8.00892857,10.0982143 L11.4910714,10.0982143" id="Line" stroke-linecap="round" stroke-linejoin="round"></path>
                            </g>
                        </g>
                    </g>
                </g>
            </g>
        </g>
    </g>
</svg>