<?xml version="1.0" encoding="UTF-8" standalone="no"?>
<svg width="32px" height="33px" viewBox="0 0 32 33" version="1.1" xmlns="http://www.w3.org/2000/svg" xmlns:xlink="http://www.w3.org/1999/xlink">
    <!-- Generator: Sketch 3.6.1 (26313) - http://www.bohemiancoding.com/sketch -->
    <title>plane</title>
    <desc>Created with Sketch.</desc>
    <defs>
        <linearGradient x1="33.1108915%" y1="0%" x2="50%" y2="100%" id="linearGradient-1">
            <stop stop-color="#268F9A" offset="0%"></stop>
            <stop stop-color="#0B3C4D" offset="100%"></stop>
        </linearGradient>
    </defs>
    <g id="Page-1" stroke="none" stroke-width="1" fill="none" fill-rule="evenodd" stroke-linecap="round" stroke-linejoin="round">
        <g id="home" transform="translate(-611.000000, -371.000000)" stroke="#ffffff" stroke-width="1.39999998">
            <g id="Fast,-Simple" transform="translate(-30.000000, 54.000000)">
                <g id="fast" transform="translate(639.000000, 315.000000)">
                    <g id="plane" transform="translate(1.000000, 0.000000)">
                        <path d="M19.5630051,16.8023539 C22.5800454,19.5405081 28.6141259,25.0168165 28.6141259,25.0168165 L0.614125928,25.0168165 L9.20478712,17.2202501 L9.20478712,17.2202501" id="Rectangle-4" transform="translate(14.614126, 20.909585) rotate(-315.000000) translate(-14.614126, -20.909585) "></path>
                        <rect id="Rectangle-2" transform="translate(18.281564, 16.843137) rotate(-315.000000) translate(-18.281564, -16.843137) " x="13.3815643" y="7.31372476" width="9.8" height="19.0588235"></rect>
                        <path d="M26.912202,3.45725641 C27.5604032,2.05658156 28.6102599,2.05423689 29.2595462,3.45725641 L32.9858741,11.5093455 L23.1858741,11.5093455 L26.912202,3.45725641 Z" id="Rectangle-3" transform="translate(28.085874, 6.965130) rotate(-315.000000) translate(-28.085874, -6.965130) "></path>
                        <path d="M1.10304788,26.873204 L6.17804788,32.873204 L10.9030479,26.873204" id="Path-3" transform="translate(6.003048, 29.873204) rotate(-315.000000) translate(-6.003048, -29.873204) "></path>
                    </g>
                </g>
            </g>
        </g>
    </g>
</svg>