<?xml version="1.0" encoding="UTF-8" standalone="no"?>
<svg width="36px" height="36px" viewBox="0 0 36 36" version="1.1" xmlns="http://www.w3.org/2000/svg" xmlns:xlink="http://www.w3.org/1999/xlink">
    <!-- Generator: Sketch 3.6.1 (26313) - http://www.bohemiancoding.com/sketch -->
    <title>Facebook</title>
    <desc>Created with Sketch.</desc>
    <defs>
        <linearGradient x1="50%" y1="0%" x2="50%" y2="100%" id="linearGradient-1">
            <stop stop-color="#2B70B4" offset="0%"></stop>
            <stop stop-color="#4460A0" offset="100%"></stop>
        </linearGradient>
        <filter x="-50%" y="-50%" width="200%" height="200%" filterUnits="objectBoundingBox" id="filter-2">
            <feOffset dx="0" dy="1" in="SourceAlpha" result="shadowOffsetOuter1"></feOffset>
            <feGaussianBlur stdDeviation="0.5" in="shadowOffsetOuter1" result="shadowBlurOuter1"></feGaussianBlur>
            <feColorMatrix values="0 0 0 0 0   0 0 0 0 0   0 0 0 0 0  0 0 0 0.07 0" in="shadowBlurOuter1" type="matrix" result="shadowMatrixOuter1"></feColorMatrix>
            <feMerge>
                <feMergeNode in="shadowMatrixOuter1"></feMergeNode>
                <feMergeNode in="SourceGraphic"></feMergeNode>
            </feMerge>
        </filter>
    </defs>
    <g id="Page-1" stroke="none" stroke-width="1" fill="none" fill-rule="evenodd" filter="url(#filter-2)">
        <g id="Login" transform="translate(-615.000000, -347.000000)" fill="url(#linearGradient-1)">
            <g id="Body" transform="translate(0.000000, 120.000000)">
                <g id="pop" transform="translate(470.000000, 146.000000)">
                    <g id="social" transform="translate(146.000000, 80.000000)">
                        <path d="M18.1605016,35 L1.87653899,35 C0.839851465,35 0,34.1596273 0,33.1233436 L0,2.87652443 C0,1.83997687 0.839983393,1 1.87653899,1 L32.1235929,1 C33.1598847,1 34,1.83997687 34,2.87652443 L34,33.1233436 C34,34.1597593 33.1597528,35 32.1235929,35 L23.4595079,35 L23.4595079,21.8333262 L27.8789525,21.8333262 L28.5407016,16.7020398 L23.4595079,16.7020398 L23.4595079,13.4260377 C23.4595079,11.9404118 23.8720457,10.9280069 26.0024135,10.9280069 L28.7195955,10.9268195 L28.7195955,6.3373558 C28.2496692,6.27482258 26.6367217,6.13511227 24.7601827,6.13511227 C20.8425909,6.13511227 18.1605016,8.52641443 18.1605016,12.9178563 L18.1605016,16.7020398 L13.7297113,16.7020398 L13.7297113,21.8333262 L18.1605016,21.8333262 L18.1605016,35 L18.1605016,35 Z" id="Facebook"></path>
                    </g>
                </g>
            </g>
        </g>
    </g>
</svg>