<?xml version="1.0" encoding="UTF-8" standalone="no"?>
<svg width="34px" height="31px" viewBox="0 0 34 31" version="1.1" xmlns="http://www.w3.org/2000/svg" xmlns:xlink="http://www.w3.org/1999/xlink">
    <!-- Generator: Sketch 3.6.1 (26313) - http://www.bohemiancoding.com/sketch -->
    <title>wallet</title>
    <desc>Created with Sketch.</desc>
    <defs>
        <linearGradient x1="33.1108915%" y1="0%" x2="50%" y2="100%" id="linearGradient-1">
            <stop stop-color="#268F9A" offset="0%"></stop>
            <stop stop-color="#0B3C4D" offset="100%"></stop>
        </linearGradient>
    </defs>
    <g id="Page-1" stroke="none" stroke-width="1" fill="none" fill-rule="evenodd">
        <g id="home" transform="translate(-515.000000, -372.000000)">
            <g id="Fast,-Simple" transform="translate(-30.000000, 54.000000)">
                <g id="free" transform="translate(545.000000, 319.000000)">
                    <g id="wallet" transform="translate(1.000000, 0.000000)">
                        <path d="M27.1304348,22.0952381 L27.1304348,27.6224906 C27.1304348,28.383268 26.5128029,29 25.7383382,29 L1.39209659,29 C0.623262872,29 0,28.3787199 0,27.6174697 L0,7.59681606 L0,7.59681606 C0,6.83326563 0.617631912,6.21428571 1.39209659,6.21428571 L25.7383382,6.21428571 C26.5071719,6.21428571 27.1304348,6.8373288 27.1304348,7.59389067 L27.1304348,13.1190476" id="Rectangle-1" stroke="#FFFFFF" stroke-width="1.39999998"></path>
                        <rect id="Rectangle-2" stroke="#FFFFFF" stroke-width="1.39999998" x="18.0869565" y="13.1190476" width="13.9130435" height="8.97619048" rx="1.39999998"></rect>
                        <ellipse id="Oval-1" fill="#FFFFFF" cx="22.6086957" cy="17.6071429" rx="1.04347826" ry="1.03571429"></ellipse>
                        <path d="M4.17391304,6.21428571 L6.26086957,0 L21.5652174,6.21428571 L4.17391304,6.21428571 Z" id="Path-1" stroke="#FFFFFF" stroke-width="1.39999998" stroke-linecap="round" stroke-linejoin="round"></path>
                    </g>
                </g>
            </g>
        </g>
    </g>
</svg>