<?xml version="1.0" encoding="utf-8"?>
<!-- Generator: Avocode 2.6.0 - http://avocode.com -->
<svg height="76" width="56" xmlns:xlink="http://www.w3.org/1999/xlink" xmlns="http://www.w3.org/2000/svg" viewBox="0 0 56 76">
    <defs>
        <linearGradient y2="100%" y1="0%" x2="0%" x1="0%" id="gradient-1">
            <stop stop-color="#41a2d1" offset="0%" />
            <stop stop-color="#1f69a5" offset="100%" />
        </linearGradient>
        <linearGradient y2="100%" y1="0%" x2="0%" x1="0%" id="gradient-2">
            <stop stop-color="#41a2d1" offset="0%" />
            <stop stop-color="#1f69a5" offset="100%" />
        </linearGradient>
        <linearGradient y2="100%" y1="0%" x2="0%" x1="0%" id="gradient-3">
            <stop stop-color="#f8383c" offset="0%" />
            <stop stop-color="#d63033" offset="100%" />
        </linearGradient>
        <linearGradient y2="100%" y1="0%" x2="0%" x1="0%" id="gradient-4">
            <stop stop-color="#41a2d1" offset="0%" />
            <stop stop-color="#1f69a5" offset="100%" />
        </linearGradient>
        <linearGradient y2="100%" y1="0%" x2="0%" x1="0%" id="gradient-5">
            <stop stop-color="#41a2d1" offset="0%" />
            <stop stop-color="#1f69a5" offset="100%" />
        </linearGradient>
        <linearGradient y2="100%" y1="0%" x2="0%" x1="0%" id="gradient-6">
            <stop stop-color="#f8383c" offset="0%" />
            <stop stop-color="#d63033" offset="100%" />
        </linearGradient>
        <linearGradient y2="100%" y1="0%" x2="0%" x1="0%" id="gradient-7">
            <stop stop-color="#41a2d1" offset="0%" />
            <stop stop-color="#1f69a5" offset="100%" />
        </linearGradient>
    </defs>
    <path fill="url(#gradient-1)" fill-rule="evenodd" d="M 17.85 58.77 C 17.85 58.77 14.98 60.44 19.9 61.01 C 25.85 61.69 28.9 61.59 35.46 60.35 C 35.46 60.35 37.19 61.43 39.6 62.37 C 24.88 68.68 6.3 62 17.85 58.77" />
    <path fill="url(#gradient-2)" fill-rule="evenodd" d="M 16.05 50.53 C 16.05 50.53 12.83 52.91 17.75 53.42 C 24.12 54.08 29.14 54.14 37.84 52.46 C 37.84 52.46 39.04 53.68 40.93 54.35 C 23.14 59.56 3.33 54.76 16.05 50.53" />
    <path fill="url(#gradient-3)" fill-rule="evenodd" d="M 31.21 36.54 C 34.84 40.73 30.26 44.49 30.26 44.49 C 30.26 44.49 39.47 39.73 35.24 33.76 C 31.29 28.21 28.26 25.44 44.65 15.92 C 44.65 15.92 18.92 22.36 31.21 36.54" />
    <path fill="url(#gradient-4)" fill-rule="evenodd" d="M 50.67 64.87 C 50.67 64.87 52.8 66.62 48.33 67.98 C 39.84 70.56 12.98 71.33 5.52 68.08 C 2.84 66.91 7.87 65.29 9.45 64.95 C 11.1 64.59 12.04 64.66 12.04 64.66 C 9.06 62.55 -7.23 68.79 3.77 70.58 C 33.77 75.45 58.45 68.38 50.67 64.87" />
    <path fill="url(#gradient-5)" fill-rule="evenodd" d="M 19.23 41.99 C 19.23 41.99 5.57 45.24 14.4 46.42 C 18.12 46.92 25.55 46.8 32.47 46.22 C 38.12 45.75 43.8 44.73 43.8 44.73 C 43.8 44.73 41.8 45.58 40.36 46.57 C 26.49 50.23 -0.31 48.52 7.41 44.79 C 13.93 41.63 19.23 41.99 19.23 41.99" />
    <path fill="#1f69a5" fill-rule="evenodd" d="M 43.74 55.7 C 57.84 48.37 51.32 41.31 46.77 42.26 C 45.66 42.5 45.16 42.7 45.16 42.7 C 45.16 42.7 45.57 42.05 46.36 41.77 C 55.37 38.6 62.29 51.12 43.46 56.08 C 43.46 56.08 43.67 55.88 43.74 55.7" />
    <path fill="url(#gradient-6)" fill-rule="evenodd" d="M 35.24 0.54 C 35.24 0.54 43.05 8.37 27.83 20.4 C 15.63 30.06 25.05 35.56 27.83 41.85 C 20.7 35.41 15.48 29.74 18.98 24.47 C 24.13 16.73 38.39 12.97 35.24 0.54" />
    <path fill="url(#gradient-7)" fill-rule="evenodd" d="M 20.62 75.6 C 34.15 76.47 54.94 75.12 55.44 68.7 C 55.44 68.7 54.49 71.13 44.25 73.06 C 32.7 75.24 18.44 74.99 9.99 73.59 C 9.99 73.59 11.73 75.02 20.62 75.6" />
</svg>