<?xml version="1.0" encoding="utf-8"?>
<!-- Generator: Avocode 2.6.0 - http://avocode.com -->
<svg height="60" width="54" xmlns:xlink="http://www.w3.org/1999/xlink" xmlns="http://www.w3.org/2000/svg" viewBox="0 0 54 60">
    <defs>
        <linearGradient y2="100%" y1="0%" x2="0%" x1="0%" id="gradient-1">
            <stop stop-color="#b9e853" offset="0%" />
            <stop stop-color="#83cd29" offset="100%" />
        </linearGradient>
    </defs>
    <path fill="url(#gradient-1)" fill-rule="evenodd" d="M 51.87 13.29 L 29.61 0.59 C 28.21 -0.2 26.38 -0.2 24.97 0.59 L 2.47 13.29 C 1.02 14.11 0 15.65 0 17.3 L 0 42.68 C 0 44.32 1.05 45.86 2.5 46.69 L 8.44 50.01 C 11.28 51.38 12.29 51.38 13.58 51.38 C 17.78 51.38 20.19 48.88 20.19 44.52 L 20.19 19.47 C 20.19 19.11 20 18.59 19.65 18.59 L 16.81 18.59 C 16.45 18.59 15.64 19.11 15.64 19.47 L 15.64 44.52 C 15.64 46.45 13.87 48.38 10.54 46.74 L 4.4 43.26 C 4.19 43.15 4.04 42.92 4.04 42.68 L 4.04 17.3 C 4.04 17.06 4.32 16.82 4.53 16.7 L 26.95 4.02 C 27.16 3.9 27.47 3.9 27.68 4.02 L 49.82 16.7 C 50.04 16.82 49.96 17.05 49.96 17.3 L 49.96 42.68 C 49.96 42.92 50.05 43.16 49.85 43.27 L 27.6 55.96 C 27.41 56.08 27.17 56.08 26.96 55.96 L 21.25 52.61 C 21.08 52.52 20.88 52.48 20.71 52.57 C 19.12 53.46 18.83 53.57 17.34 54.08 C 16.98 54.21 16.44 54.42 17.55 55.04 L 25.02 59.38 C 25.73 59.79 26.54 60 27.36 60 C 28.19 60 29 59.79 29.72 59.38 L 51.87 46.69 C 53.31 45.86 54 44.32 54 42.68 L 54 17.3 C 54 15.65 53.31 14.12 51.87 13.29 L 51.87 13.29 Z M 34.27 38.66 C 28.35 38.66 27.05 37.05 26.62 34.16 C 26.57 33.85 26.3 33.47 25.97 33.47 L 23.08 33.47 C 22.72 33.47 22.44 33.9 22.44 34.25 C 22.44 37.95 24.49 42.44 34.27 42.44 C 41.36 42.44 45.42 39.74 45.42 34.95 C 45.42 30.2 42.16 28.95 35.29 28.06 C 28.34 27.15 27.63 26.7 27.63 25.1 C 27.63 23.78 28.23 22.02 33.37 22.02 C 37.97 22.02 39.66 22.99 40.36 26.03 C 40.42 26.32 40.69 26.53 40.99 26.53 L 43.89 26.53 C 44.07 26.53 44.24 26.46 44.36 26.33 C 44.49 26.19 44.55 26.03 44.53 25.84 C 44.08 20.6 40.54 18.16 33.37 18.16 C 27 18.16 23.2 20.8 23.2 25.24 C 23.2 30.05 26.98 31.38 33.1 31.98 C 40.42 32.68 40.99 33.73 40.99 35.15 C 40.99 37.61 38.98 38.66 34.27 38.66 L 34.27 38.66 Z M 34.27 38.66" />
</svg>