<?xml version="1.0" encoding="utf-8"?>
<!-- Generator: Avocode 2.6.0 - http://avocode.com -->
<svg height="37" width="73" xmlns:xlink="http://www.w3.org/1999/xlink" xmlns="http://www.w3.org/2000/svg" viewBox="0 0 73 37">
    <defs>
        <linearGradient y2="100%" y1="0%" x2="0%" x1="0%" id="gradient-1">
            <stop stop-color="#678dcd" offset="0%" />
            <stop stop-color="#6181b6" offset="100%" />
        </linearGradient>
    </defs>
    <path fill="url(#gradient-1)" fill-rule="evenodd" d="M 36.5 0 C 16.34 0 0 8.28 0 18.5 C 0 28.72 16.34 37 36.5 37 C 56.66 37 73 28.72 73 18.5 C 73 8.28 56.66 0 36.5 0 L 36.5 0 Z M 27 22.1 C 26.13 22.92 25.16 23.26 24.1 23.6 C 23.03 23.95 21.68 23.88 20.03 23.88 L 16.29 23.88 L 15.26 29.85 L 10.9 29.85 L 14.79 9.54 L 23.18 9.54 C 25.7 9.54 27.54 10.26 28.7 11.59 C 29.86 12.91 30.2 14.79 29.74 17.17 C 29.55 18.15 29.23 19.05 28.78 19.86 C 28.32 20.68 27.73 21.43 27 22.1 L 27 22.1 Z M 39.73 23.88 L 41.46 15.26 C 41.65 14.25 41.58 13.5 41.24 13.14 C 40.9 12.77 40.18 12.52 39.07 12.52 L 35.61 12.52 L 33.38 23.88 L 29.05 23.88 L 32.94 4.16 L 37.27 4.16 L 36.24 9.54 L 40.09 9.54 C 42.52 9.54 44.19 10.02 45.11 10.87 C 46.03 11.72 46.31 12.88 45.94 14.77 L 44.13 23.88 L 39.73 23.88 L 39.73 23.88 Z M 63.79 17.2 C 63.6 18.18 63.28 19.07 62.82 19.88 C 62.37 20.69 61.78 21.43 61.05 22.1 C 60.18 22.92 59.21 23.26 58.14 23.6 C 57.08 23.95 55.72 23.88 54.07 23.88 L 50.34 23.88 L 49.3 29.85 L 44.94 29.85 L 48.83 9.54 L 57.22 9.54 C 59.75 9.54 61.59 10.26 62.74 11.59 C 63.9 12.91 64.25 14.83 63.79 17.2 L 63.79 17.2 Z M 55.57 12.52 L 52.58 12.52 L 50.95 20.89 L 53.61 20.89 C 55.36 20.89 56.67 20.72 57.54 20.05 C 58.4 19.39 58.98 18.36 59.28 16.81 C 59.57 15.33 59.44 14.16 58.88 13.55 C 58.33 12.94 57.23 12.52 55.57 12.52 L 55.57 12.52 Z M 21.52 12.52 L 18.54 12.52 L 16.91 20.89 L 19.56 20.89 C 21.32 20.89 22.63 20.72 23.49 20.05 C 24.35 19.39 24.93 18.36 25.23 16.81 C 25.52 15.33 25.39 14.16 24.84 13.55 C 24.29 12.94 23.18 12.52 21.52 12.52 L 21.52 12.52 Z M 21.52 12.52" />
</svg>