<?xml version="1.0" encoding="UTF-8" standalone="no"?>
<svg width="78px" height="78px" viewBox="0 0 78 78" version="1.1" xmlns="http://www.w3.org/2000/svg" xmlns:xlink="http://www.w3.org/1999/xlink">
    <!-- Generator: Sketch 3.6.1 (26313) - http://www.bohemiancoding.com/sketch -->
    <title>icon</title>
    <desc>Created with Sketch.</desc>
    <defs>
        <radialGradient cx="50%" cy="0%" fx="50%" fy="0%" r="134.136032%" id="radialGradient-1">
            <stop stop-color="#056585" offset="0%"></stop>
            <stop stop-color="#060629" offset="100%"></stop>
        </radialGradient>
    </defs>
    <g id="Page-1" stroke="none" stroke-width="1" fill="none" fill-rule="evenodd">
        <g id="home" transform="translate(-194.000000, -910.000000)">
            <g id="Features" transform="translate(0.000000, 677.000000)">
                <g id="1" transform="translate(194.000000, 217.000000)">
                    <g id="icon" transform="translate(0.000000, 16.000000)">
                        <rect id="bg" fill="#FFFFFF" x="0" y="0" width="78" height="78" rx="69.9999988"></rect>
                        <g id="Real-time-Weather-API-" transform="translate(20.892857, 11.142857)" stroke="#179EFF" stroke-width="1.39999998" stroke-linejoin="round">
                            <path d="M8.35714286,45.9642857 C3.74162031,45.9642857 0,42.2226654 0,37.6071429 C0,32.9916203 3.74162031,29.25 8.35714286,29.25 C10.0658133,29.25 11.6547166,29.7627841 12.9783575,30.6428571 L13.0560832,30.6428571 C14.5430576,25.8036039 19.0482052,22.2857143 24.375,22.2857143 C30.9136569,22.2857143 36.2142857,27.5863431 36.2142857,34.125 C36.2142857,40.6636569 30.9136569,45.9642857 24.375,45.9642857 L8.35714286,45.9642857 Z" id="Combined-Shape"></path>
                            <path d="M23.8023056,22.4094484 C23.8023056,15.8707915 18.5016768,10.5701627 11.9630199,10.5701627" id="Oval-9-Copy" stroke-linecap="round" transform="translate(17.882663, 16.489806) rotate(-45.000000) translate(-17.882663, -16.489806) "></path>
                            <path d="M26.5880199,21.0165913 C26.5880199,11.4009193 18.7929775,3.60587699 9.17730557,3.60587699" id="Oval-9" stroke-linecap="round" transform="translate(17.882663, 12.311234) rotate(-45.000000) translate(-17.882663, -12.311234) "></path>
                        </g>
                    </g>
                </g>
            </g>
        </g>
    </g>
</svg>