<?xml version="1.0" encoding="utf-8"?>
<!-- Generator: Avocode 2.6.0 - http://avocode.com -->
<svg height="48" width="50" xmlns:xlink="http://www.w3.org/1999/xlink" xmlns="http://www.w3.org/2000/svg" viewBox="0 0 50 48">
    <defs>
        <linearGradient y2="100%" y1="0%" x2="0%" x1="0%" id="gradient-1">
            <stop stop-color="#ee1806" offset="0%" />
            <stop stop-color="#d91404" offset="100%" />
        </linearGradient>
    </defs>
    <path fill="url(#gradient-1)" fill-rule="evenodd" d="M 13.88 42.93 C 24.78 44.43 35.48 45.91 46.4 47.41 C 42.68 41.16 39.06 35.08 35.4 28.95 L 13.88 42.93 L 13.88 42.93 Z M 49.48 8.38 C 48.52 9.83 47.55 11.29 46.59 12.74 C 43.3 17.74 40 22.74 36.71 27.74 C 36.53 28.01 36.29 28.23 36.55 28.66 C 39.73 33.96 42.89 39.27 46.05 44.57 C 46.55 45.41 47.05 46.25 47.7 47.05 C 48.34 34.17 48.98 21.3 49.62 8.42 L 49.48 8.38 L 49.48 8.38 Z M 6.05 24.89 C 6.2 25.03 6.57 25.11 6.75 25.03 C 9.8 23.52 12.87 22.04 15.85 20.4 C 16.83 19.87 17.57 18.91 18.41 18.14 C 21.19 15.57 23.96 13 26.73 10.43 C 26.9 10.27 27.1 10.11 27.2 9.92 C 28.2 7.95 29.18 5.98 30.19 3.96 C 28.98 3.5 27.84 3.05 26.68 2.64 C 26.52 2.59 26.27 2.7 26.1 2.79 C 23.42 4.3 20.69 5.74 18.09 7.38 C 16.79 8.21 15.73 9.42 14.58 10.48 C 12.73 12.19 10.87 13.9 9.05 15.63 C 8.56 16.09 8.12 16.62 7.74 17.17 C 6.49 19.01 5.28 20.87 4.01 22.78 C 4.72 23.52 5.36 24.23 6.05 24.89 L 6.05 24.89 Z M 17.2 22.38 C 15.69 28.84 14.18 35.27 12.62 41.91 C 19.93 37.16 27.07 32.52 34.17 27.91 C 28.52 26.07 22.89 24.24 17.2 22.38 L 17.2 22.38 Z M 47.61 8.44 C 41.44 9.48 35.41 10.5 29.3 11.53 C 31.38 16.63 33.42 21.62 35.51 26.76 C 39.57 20.62 43.55 14.6 47.61 8.44 L 47.61 8.44 Z M 17.46 21.06 C 23.02 22.88 28.47 24.66 34.08 26.5 C 32 21.38 29.99 16.44 27.93 11.4 C 24.44 14.63 20.99 17.8 17.46 21.06 L 17.46 21.06 Z M 6.28 28.66 C 4.31 33.41 2.4 38 0.46 42.68 C 4.19 42.57 7.81 42.46 11.55 42.35 C 9.79 37.78 8.07 33.31 6.28 28.66 L 6.28 28.66 Z M 11.68 39.1 L 11.81 39.07 C 13.14 33.49 14.49 27.95 15.85 22.16 C 12.82 23.74 9.93 25.26 6.96 26.81 C 8.48 30.78 10.09 34.97 11.68 39.1 L 11.68 39.1 Z M 45.38 7.54 C 43.61 7.06 41.84 6.59 40.07 6.12 C 37.52 5.45 34.98 4.78 32.43 4.1 C 32.12 4.02 31.89 3.96 31.7 4.35 C 30.8 6.2 29.87 8.04 28.96 9.89 C 28.93 9.95 28.94 10.02 28.92 10.17 C 34.43 9.33 39.9 8.49 45.37 7.65 L 45.38 7.54 L 45.38 7.54 Z M 35.11 3.32 L 49.53 7.34 C 48.71 4.96 47.94 2.76 47.15 0.49 L 35.13 3.18 L 35.11 3.32 L 35.11 3.32 Z M 12.9 44 C 11.11 43.8 9.28 43.99 7.47 44.02 C 5.98 44.04 4.49 44.1 3 44.15 C 2.85 44.15 2.7 44.18 2.54 44.35 C 14.85 45.5 27.15 46.64 39.45 47.79 L 39.48 47.62 C 35.53 47.08 31.59 46.54 27.65 46 C 22.73 45.32 17.83 44.58 12.9 44 L 12.9 44 Z M 0.71 38.4 C 2.29 34.69 3.87 30.98 5.46 27.27 C 5.62 26.9 5.61 26.65 5.3 26.35 C 4.63 25.71 4.01 25.02 3.29 24.26 C 2.3 29.16 1.34 33.93 0.38 38.71 L 0.49 38.76 C 0.56 38.64 0.65 38.53 0.71 38.4 L 0.71 38.4 Z M 31.95 2.34 C 34.63 1.64 37.34 1.1 40.04 0.49 C 40.21 0.45 40.38 0.39 40.55 0.34 L 40.53 0.21 C 36.73 0.73 32.93 1.24 28.94 1.78 C 30.03 2.26 30.87 2.62 31.95 2.34 L 31.95 2.34 Z M 31.95 2.34" />
</svg>