<?xml version="1.0" encoding="UTF-8" standalone="no"?>
<svg width="78px" height="78px" viewBox="0 0 78 78" version="1.1" xmlns="http://www.w3.org/2000/svg" xmlns:xlink="http://www.w3.org/1999/xlink">
    <!-- Generator: Sketch 3.6.1 (26313) - http://www.bohemiancoding.com/sketch -->
    <title>icon</title>
    <desc>Created with Sketch.</desc>
    <defs>
        <radialGradient cx="50%" cy="0%" fx="50%" fy="0%" r="134.136032%" id="radialGradient-1">
            <stop stop-color="#056585" offset="0%"></stop>
            <stop stop-color="#060629" offset="100%"></stop>
        </radialGradient>
    </defs>
    <g id="Page-1" stroke="none" stroke-width="1" fill="none" fill-rule="evenodd">
        <g id="home" transform="translate(-194.000000, -1214.000000)">
            <g id="Features" transform="translate(0.000000, 677.000000)">
                <g id="5" transform="translate(194.000000, 533.000000)">
                    <g id="icon" transform="translate(0.000000, 4.000000)">
                        <rect id="bg" fill="#FFFFFF" x="0" y="0" width="78" height="78" rx="69.9999988"></rect>
                        <path d="M38.3035714,28.5535714 L38.3035714,38.3035714 L31.3392857,38.3035714 L31.3392857,39 C31.3392857,39.3873084 31.651855,39.6964286 32.0374287,39.6964286 L38.3035714,39.6964286 L38.3035714,49.4464286 L32.0374287,49.4464286 C31.6592955,49.4464286 31.3392857,49.7582303 31.3392857,50.1428571 C31.3392857,50.5301656 31.651855,50.8392857 32.0374287,50.8392857 L38.3035714,50.8392857 L38.3035714,52.9308122 C38.3035714,53.3162998 38.6153731,53.625 39,53.625 C39.3873084,53.625 39.6964286,53.3142015 39.6964286,52.9308122 L39.6964286,50.8392857 L45.9625713,50.8392857 C46.3407045,50.8392857 46.6607143,50.527484 46.6607143,50.1428571 L46.6607143,49.4464286 L39.6964286,49.4464286 L39.6964286,39.6964286 L46.6607143,39.6964286 L46.6607143,39 C46.6607143,38.6126916 46.348145,38.3035714 45.9625713,38.3035714 L39.6964286,38.3035714 L39.6964286,28.5535714 L45.9625713,28.5535714 C46.3407045,28.5535714 46.6607143,28.2417697 46.6607143,27.8571429 C46.6607143,27.4698344 46.348145,27.1607143 45.9625713,27.1607143 L39.6964286,27.1607143 L39.6964286,25.0691878 C39.6964286,24.6837002 39.3846269,24.375 39,24.375 C38.6126916,24.375 38.3035714,24.6857985 38.3035714,25.0691878 L38.3035714,27.1607143 L32.0374287,27.1607143 C31.6592955,27.1607143 31.3392857,27.472516 31.3392857,27.8571429 L31.3392857,28.5535714 L38.3035714,28.5535714 Z M45.2678571,49.4464286 L45.2678571,39.6964286 L46.6607143,39.6964286 L46.6607143,49.4464286 L45.2678571,49.4464286 Z M31.3392857,38.3035714 L31.3392857,28.5535714 L32.7321429,28.5535714 L32.7321429,38.3035714 L31.3392857,38.3035714 Z" id="Start-Free,-Upgrade-Later-" fill="#179EFF"></path>
                    </g>
                </g>
            </g>
        </g>
    </g>
</svg>